<?xml version="1.0" encoding="UTF-8"?>
<svg id="_レイヤー_2" data-name="レイヤー 2" xmlns="http://www.w3.org/2000/svg" viewBox="0 0 630.05 276.7">
  <g id="_レイヤー_1-2" data-name="レイヤー 1">
    <g>
      <path d="M248.62,250.5c-6.97-.69-13.53-3.06-18.37-8.25-.98.83-2.21,19.66-3.03,22.86-.22.85-.13,2.41-1.47,1.13-1.49-1.43,2.54-21.15,2.51-24.92,0-.98.63-1.68-1.01-2.07-2.66,11.99-15.13,25.46-24.29,33.47-1.32,1.15-3.06,2.75-4.97,2.52l20.23-21.39c3.21-5.64,7.49-11.78,10.3-17.07,1.21-2.29,1.24-7.69.6-10.28-3.62,2.89-7.32,5.62-10.56,8.96-.21.22-4.97,7.73-4.06,1.93.59-3.78,15.45-12.68,15.75-13.68,1.06-3.57-1.01-9.87-.77-13.71-4.15,1.04-3.42,5.77-3.74,6-.15.11-3.6.12-3.75,0-1.93-1.59,7.01-7.48,7.37-8.8.69-2.52-1.33-5.68-1.22-8.1.22-4.53,4.37-2.3,4.33-1.47-.03.59-2.07.79-2.29,1.65-.08.34.58,6.7.81,6.97.69.84,4.07-2.66,5.23-.37-.67,1.01-4.48,1.9-4.48,3v13.12c2.33.38,10.03-7.98,11.25-6.75,1.9,1.93-11,8.75-11.25,9.54l-1.42,14.14c3.2,5.68,10.54,8.65,16.81,9.31,4.98.52,15.37-2.03,17.61,2.26-5.2-.37-11.01.51-16.12,0Z"/>
      <path d="M521.13,192.87c3.63,5.84-10.75,12.34-5.15,16.08,3.14,2.09,33.13-17.75,17.93,11.84-5.44,10.59-13.39,3.06-16.4-4.78,13.78,15.92,15.1,4.33,18.74-9.75-1.01-.92-19.09,3.92-19.94,5.22-.49.75,1.18,9.66,1.22,11.62.19,9.15.56,20.94-.97,29.83-.24,1.38-.49,3.8-2.05,4.32l-.02-45-14.23,9.39c-.16.54,7.34,6.57,5.99,7.86-.97.93-9.05-6.17-9.05-7.12,0-3.09,16.36-11.15,16.6-12.15,1.11-4.67-6.73-9.1-5.91-12.09.66-2.4,11.05-8.8,13.24-5.27ZM519.74,194.25c-1.9-1.72-10.7,2.67-9.4,6.01,1.7,4.38,12.03-3.63,9.4-6.01Z"/>
      <path d="M413.99,239.25c-.83.95-2.72-2.85-5.45-2.14-3.51.92-9.78,15.54-.6,9.21,8.44-5.82,18.68-25.73,16.53-35.92s-19.35,3.15-22.87,6.33c-2.07,1.87-7.64,9.55-8.23,9.79-.73.29-2.32.3-1.86-1.13l23.22-34.53-13.87,10.13c-1.03.23-1.41-.05-1.11-1.11.42-1.46,16.51-13.99,17.62-13.87,2.05.22.32,3.02.01,3.75-3.16,7.53-10.75,16.68-15.38,23.61,32.43-23.98,28.57,9.92,13.11,28.12-1.4,1.65-6.98,7.3-8.67,7.84-9.9,3.12-3.41-13.36,2.29-14.28,2.16-.35,6.79,2.42,5.25,4.18Z"/>
      <path d="M32.25,51.75v47.62c0,8.03,3.14,17.14,10.58,20.92,28.96,14.75,61.62-20.18,76.44-41.54l1.49.38c-14.28,22.79-49.45,58.51-79.27,42.5-6.04-3.24-10.74-10.93-10.74-17.76v-52.12h1.5Z"/>
      <path d="M448.5,193.5c.1-.11,1.94.15,2.92-.42,1.9-1.1,3.4-2.81,5.28-3.75,3.41-1.71,22.39-8.7,24.6-6.13s-2.79,46.99-5.07,48.55c-3.39,2.31-.98-3.48-1.11-3.71-1.19-2.16-11.31,1.83-13.38,3.1-2.53,1.56-8.58,10.06-7.99,4.76.29-2.64,9.19-7.54,11.72-8.54s10.28-2.07,10.69-2.44c1.51-1.36,5.25-38.97,3.83-40.42-1.68-1.71-25.13,6.61-27.79,10.84-2.46,3.91-3.42,32.9-1.49,34.58.6.53,2.69-1.57,2.26.69h-4.49s0-37.11,0-37.11Z"/>
      <path d="M511.5,169.5c2.13-.24,1.17.13,1.48,1.13.63,2.07.48,9.71.78,10.12.19.25,5.51-2.29,5.75-2.49,2.07-1.68,4.94-10.74,8.23-10.92,4.63-.26-6.73,7.97-4.98,9.66.59.57,12.81-4.42,15.7-4.92,20.13-3.44,17.95,2.08,5.69,13.19-1.2,1.09-9.89,8.04-10.53,8.22-1.01.29-1.39-.09-1.11-1.11.45-1.57,22.01-16.29,18.74-19.13-.32-.28-7.33-.09-8.6.01-8.77.72-39.87,12.13-43.95,19.82-1.08,2.04.42,4.28-1.08,4.9-.67.28-2.35-2.67-3.28-.64-1.61,3.51,3.66,5.93,5.17,8.14-16.74-3.29,1.07-17.27,7.5-21.73-7.6,1.94-8.52-10.58-4.5-6.75.35.34-3.27,4.67,5.74,5.16,2.73.15,3.26.87,3.26-1.79v-10.88Z"/>
      <path d="M342.75,114c18.87-28.91,36.55-56.98,32.14-93.27-.54-4.45-3.85-14.29-3.69-17.39.08-1.61.75-2.75,2.28-3.33,1.79,14.32,5.04,27.68,3.74,42.35-1.8,20.29-16.94,50.53-29.37,66.63-1.33,1.72-2.73,4.78-5.1,5.01Z"/>
      <path d="M263.99,38.25c.67.57-8.51,10.82-9.89,14.48-1.73,4.6-5.47,16.48,3.34,14.61,5.99-1.27,11.58-12.4,13.94-17.58.85-1.86,1.81-8.47,3.86-6.27.26.28-.12,5.72.32,7.56.14.59,5.71,10.72,1.18,6.32-1.66-1.61-2.41-5.07-3.37-7.12-11.72,29.64-36.45,22.09-15.4-7.14l-10.87,7.88c-1.17.17-1.28.07-1.1-1.1.39-2.51,16.34-13.05,17.98-11.64Z"/>
      <path d="M205.48,126l-2.22-1.12c8.12-15.04,18.98-32.46,22.7-49.28,5.03-22.74-13.33-12.99-16.17-5.64-.29.75.61,6.75-2.8,3.54-4.55-4.29,19.32-22.18,21.69-9.32,3.05,16.5-16.6,46.65-23.21,61.82Z"/>
      <path d="M291,223.5c.01.08,1.24-.3,1.51.5.34,1-.51,3.87.36,3.99,1.33.18,4.18-1.85,3.32-4.04s-5.37-.2-4.43-2.32c2.76-6.17,11.2,7.37,1.8,7.87-2.58.14-2.72-3.62-3.69-1.52s-1.52,7.13-2.6,10.15c-3.91,10.9-12.97,27.74-20.7,36.3-.66.73-2.07,3.15-3.32,1.93,12.16-17.41,22.89-33.28,26.05-54.95.43-2.97-.41-9.07.32-10.93.64-1.65,5.14-2.27,4.4.26-.52.13-3-.15-3,0,0,3.66-.55,9.46,0,12.75Z"/>
      <path d="M186.74,50.25l-2.98,3.38c1.56.2,6.51-1.96,5.99,1.11-5.29.3-8.67,1.41-7.5,7.5l8.61-3.01c2.36,3.3-7.23,3.04-8.44,5.42-.73,1.43.02,5.94.99,7.29,4.23,5.87,8.69-6,10.46-6.72,5.26-2.14-3.72,7.82-4.86,8.65-7.71,5.6-8.1-6.55-9.03-7.13-.29-.18-4.53,7.1-5.24,2.61-.29-1.86,8.29-5.57,5.24-10.86-11.05,3.37-2.4-.48-.03-2.66,1.86-1.7,2.49-5.7,6.78-5.58Z"/>
      <path d="M314.24,36c.09,2.37-2.77,1.34-4.87,3-3.28,2.58-12.6,17.03-9.38,20.25,2.44,2.44,14.34-6.32,17.19-7.19,1.01-.31,2.04-.78,1.56.8-.38,1.22-12.58,7.72-14.38,8.14-12.09,2.82-4.23-9.1-4.53-11.74-.13-1.16-3.65-5.49-2.84-8.01-4.41,2.85-5.34-4.3-1.14-3.79,3.37.41,3.69,9.96,4.51,9.79.94-.2,8.34-14.45,13.87-11.24Z"/>
      <path d="M11.24,101.25c-1.65,16.79-3.97,33.82-6.96,50.41-.68,3.78-1.37,9.88-2.58,13.2-.44,1.19.38,2-1.7,1.63l11.24-65.24Z"/>
      <path d="M264.75,220.49c4.96,1.48-4.66,4.45-1.54-1.15s40.27-26.57,45.98-24.96c2.02.57,2.98,3.48.59,3.24-1.46-.15-1.44-1.53-5.29-.75-4.27.86-40.87,20.7-39.74,23.62Z"/>
      <path d="M208.76,233.51c-.89,1.18-1.53,3.03-2.55,3.86-.49.4-1.64-.25-2.25.07-.19.1-3.82,4.34-2.96.7.22-.93,5.8-5.14,6.89-7.36,7.15-14.64-9.8-4.74-11.08-1.25-.08.22.64,4.36.8,4.52.32.33,6.73,1.6,2.18,2.93-1.99.58-9.07-5.64-7.79-7.46.14-.2,2.71-.32,3.51-1,3.48-2.95,8.96-9.41,14.75-7.15,2.95,1.15.38,6.19.07,8.09-.15.9,1.02,1.66.97,1.92-.22,1.11-2.01,1.42-2.55,2.14Z"/>
      <path d="M327.74,221.25v4.5c5.57-3.05,7.2,4.68,2.83,6.95-1.36.71-3.56.24-4.2.67-.4.27-1.7,6.48-2.72,8.16-5.3,8.81,1.64-10.75,1.83-12.78-2.85.57-.57,5.35-4.07,4.48-4.34-1.07,3.53-6.32,3.71-6.73,1.25-2.75-1.3-6.11,2.62-5.26ZM331.49,227.25c-2.75-2.23-5.31,2.5-3.74,4.49.94,1.2,4.6-3.79,3.74-4.49Z"/>
      <path d="M601.49,237l-27.5-12.63c-1.41.05-6.15,5.83-6.24,6.27-.03.17,3.29.77.75,2.25-7.76,4.52,1.99-10.9,5.49-10.77,1.11,2.59,30.33,12.17,27.5,14.88Z"/>
      <path d="M339.47,227.52c-.46-.58-11.85-11.12-6.1-11.51.28-.02,1.39,3.9,2.32,5.16,4.89,6.61,12.23,11.72,15.89,20.11.54,1.24,1.49,1.19-.22,2.44-3.93-5.47-7.72-10.92-11.9-16.21Z"/>
      <path d="M625.48,246c-2.47,2.63-.59-3.56-.73-3.74-.34-.42-4.16.57-3.75-4.06.31-3.53,8.18-10.6,9.02-4.52.32,2.32-1.35,3.49-1.5,5.2-.09,1.03,1.48,2.11,1.47,2.24-.05.77-2.63,1.15-3.35,1.89-.9.93-.91,2.73-1.14,2.98ZM627.74,233.25c-2.8-.13-6.52,6.85-3.35,7.5,2.07.42,3.97-5.94,3.35-7.5Z"/>
      <path d="M343.34,25.37c-.02.07-1.3.15-1.33.64-.18,2.57.08,5.17,0,7.74l5.63-5.99c3.85-.95-4.4,9.91-7.1,8.22-.94-.59-1.08-9.92-.62-11.44.98-3.25,3.95-1.19,3.43.83Z"/>
      <path d="M62.24,57c.09,5.15.08,11.03.76,16.11.19,1.45,3.76,11,1.87,10.87-3.54-.24-4.64-22.53-4.13-25.87.2-1.31-.31-1.24,1.5-1.11Z"/>
      <path d="M470.99,208.5c1.48,1.58-3.52,10.47-2.61,2.25l-15.38,9.74c-.38-1.84.26-1.89,1.22-2.9,1.58-1.65,15.41-10.55,16.77-9.1Z"/>
      <path d="M134.63,69.02c.95,0-.02,7.59.19,8.42-.31,1.4-3,7.91-3.95,8.04-2.18.29,1.75-7.55,1.9-8.6.32-2.19-1.98-7.85,1.85-7.86Z"/>
      <path d="M373.49,222.75c2.76,2.71-15.18,10.4-7.12-3.75-1.7,13.14,5.85,2.51,7.12,3.75Z"/>
      <path d="M287.24,189c.72.64-1.95,2.79-2.23,4.15-.53,2.51.91,4.71.37,7.09-5.62-1.89-1.22-13.98,1.87-11.24Z"/>
      <path d="M148.49,75.75l-.74,3.74,6.74-1.49c2.39,2.61-9.06,6.33-8.59.68.05-.67,1.04-3.64,2.6-2.93Z"/>
      <path d="M150.74,65.25c.27.27.21,1.71-.5,2.26-.95.73-6.88,3.82-8.49,3.73-.18-2.32,8.39-6.61,8.99-5.99Z"/>
      <path d="M348.74,215.25c-1.75.68-2.8-4.48-2.86-5.07-.47-4.76,3.59-3.14,3.59-2.05,0,.38-2.35,4.51-.74,7.12Z"/>
      <path d="M212.24,45c.45.83-2.08,3.24-2.27,3.31-6.76,2.57-3.54-5.02,2.27-3.31Z"/>
      <path d="M381.74,213.75l-1.87,8.98c-1.54-1.26-.33-9.18,1.87-8.98Z"/>
      <path d="M353.24,213.75c-3.73-.19-.91-7.42,1.88-7.48,2.5-.05-4.14,5.34-1.88,7.48Z"/>
    </g>
  </g>
</svg>