<?xml version="1.0" encoding="UTF-8"?>
<svg id="_レイヤー_2" data-name="レイヤー 2" xmlns="http://www.w3.org/2000/svg" viewBox="0 0 1036.02 468.61">
  <defs>
    <style>
      .cls-1 {
        stroke-width: 8px;
      }

      .cls-1, .cls-2, .cls-3, .cls-4, .cls-5, .cls-6, .cls-7, .cls-8, .cls-9, .cls-10, .cls-11 {
        fill: none;
      }

      .cls-1, .cls-2, .cls-3, .cls-4, .cls-5, .cls-6, .cls-7, .cls-8, .cls-9, .cls-10, .cls-11, .cls-12 {
        stroke: #fff;
        stroke-miterlimit: 10;
      }

      .cls-2 {
        stroke-width: 11px;
      }

      .cls-3 {
        stroke-width: 10px;
      }

      .cls-4 {
        stroke-width: 18px;
      }

      .cls-5 {
        stroke-width: 16px;
      }

      .cls-6 {
        stroke-width: 17px;
      }

      .cls-7 {
        stroke-width: 13px;
      }

      .cls-8 {
        stroke-width: 20px;
      }

      .cls-9 {
        stroke-width: 15px;
      }

      .cls-10 {
        stroke-width: 26px;
      }

      .cls-11, .cls-12 {
        stroke-width: 19px;
      }

      .cls-12 {
        fill: #fff;
      }
    </style>
  </defs>
  <g id="_レイヤー_3" data-name="レイヤー 3">
    <path class="cls-12" d="M23.63,170.46c0,33.58-5.69,59.6-5.69,59.6l-8.55,55.61"/>
    <polyline class="cls-6" points="59.27 95.18 59.27 122.45 60.44 144.12 60.44 160.3 60.44 188.55 67.3 203.09 77.17 210.22 96.64 215.7 120.5 215.7 145.46 203.64 162.19 189.65 182.94 173.35 193.73 155.44 200.59 144.12 206.55 140.28"/>
    <polyline class="cls-6" points="109.03 104.66 109.03 128.81 110.39 140.56 114.74 150.98 117.71 155.44"/>
    <polyline class="cls-6" points="146.83 102.12 148.2 115.87 150.26 126.57 153.96 134.52 155.88 136.86"/>
    <polyline class="cls-6" points="222.04 120.76 222.63 130.19 223.52 136.86 222.78 143.8 219.52 152.29 219.52 154.38 219.52 156.27"/>
    <line class="cls-6" x1="233.92" y1="131.77" x2="252.28" y2="116.27"/>
    <line class="cls-6" x1="239.76" y1="136.86" x2="259.09" y2="147.75"/>
    <line class="cls-6" x1="283.14" y1="114.57" x2="306.76" y2="90.92"/>
    <line class="cls-6" x1="282.26" y1="133.05" x2="316.32" y2="92.71"/>
    <polyline class="cls-6" points="324.67 108.64 302.26 126 300.94 131.77 300.94 136.86 306.76 136.86 315.44 131.48 319.39 125.56 324.67 122.75 326.34 120.76"/>
    <line class="cls-6" x1="336.94" y1="94.8" x2="356.67" y2="84.54"/>
    <path class="cls-4" d="M336.94,135.89l9.86-15.12,12.57-6.19,7.25-1.7,9.23,3.39s3.95-2.58.88,13.46-5.27,23.07-5.27,23.07l-7.69,13.62-6.35,18.67-10.62,20.21-10.66,14.64"/>
    <path class="cls-7" d="M399.81,100.21l20.12-15.67,9.82-7.31h3.17l-16.56,20.06-2.43,10.23s-2.33,3.43-2.66,7.05-3.66.77.67,6.19c4.33,5.42,3,8.42,8.66,6.42,5.66-2,13.66-10.92,13.66-10.92l11.32-18.98,4.33-11.41.7-4.66,3.96,21.52,5.13,8.79"/>
    <line class="cls-9" x1="475.7" y1="73.02" x2="489.88" y2="84.54"/>
    <path class="cls-9" d="M515.52,69.01l-25.65,25.79s-2,5.08,0,11.41c2,6.33,1.67,5.35,5.66,6.67s11.32-7.01,11.32-7.01l13.32-6.99,3.79-.73,3.53-.86"/>
    <polyline class="cls-9" points="559.09 47.62 553.39 64.22 552.07 76.11 572.72 58.52"/>
    <path class="cls-9" d="M602.18,2.62s12.59,33.75,11.59,53.39-.5,29.72-2.52,38.79c-2.01,9.07-4.53,16.66-9.07,29.74s-7.52,16.92-14.09,30.86c-6.57,13.95-10.08,15.96-15.38,24.53s-7.18,15.57-10.32,18.13-13.61,9.07-13.61,9.07"/>
    <path class="cls-9" d="M323.56,386.48l7.91-8.11,5.95-4.22,1.52-4.9h6.42l2.53,3.55v4.81l-1.86,4.15-.17,3.55-1.86,2.03-4.73,7.6s-3.89,2.37-10.81,0-5.24-5.07-11.55-12.76"/>
    <line class="cls-3" x1="364.44" y1="363.67" x2="391.14" y2="341.88"/>
    <polyline class="cls-3" points="351.77 400.51 373.4 379.22 398.91 362.16 401.65 359.92 407.69 357.6"/>
    <polyline class="cls-9" points="381.85 325.66 377.79 335.63 375.76 339.35 379.73 365.2 378.8 386.48 378.8 397.47 371.33 451.34"/>
    <polyline class="cls-9" points="377.79 393.9 365.64 414.7 357.22 425.85 330.13 455.67 324.4 464.54"/>
    <path class="cls-9" d="M378.22,401.67s16.55,11.89,17.24,12.12,13.2,3.64,13.2,3.64h15.02l11.15-2.05,2.96.91"/>
    <path class="cls-9" d="M472.36,313.59s-7.67,9.22-7.67,12.08-2.02,6.08,0,7.69c2.02,1.61,4.15,4.96,4.15,4.96"/>
    <polyline class="cls-9" points="428.81 377.07 434.5 369.56 437.38 363.42 445.95 357.2 455.81 352.2 468.08 344.46 474.15 338.78 478.02 337.41 484.77 336.58 495.61 332.48 508.65 327.48 510.4 327.03"/>
    <path class="cls-9" d="M478.55,345.45l-3.87,14.18-1.29,5.61-3.79,20.09-1.74,4.78,1.74,10.92s-17.29,34.2-20.47,37.76c-3.18,3.56-18.88,24.79-18.88,24.79"/>
    <polyline class="cls-9" points="476.2 366.84 485.34 375.16 487.39 379.71 482.91 382.88 473.4 390.52"/>
    <path class="cls-1" d="M519.66,392.58s9.7-9.14,14.73-12.31c5.04-3.17,10.26-2.8,10.44-1.59s1.31,1.41-1.87,5.69c-3.17,4.29-3.92,5.22-3.92,5.22l-1.87,2.05"/>
    <path class="cls-6" d="M533.27,366.84c-3.79,14.03-1.74,15.46-1.74,15.46l-6.09,28.75"/>
    <path class="cls-6" d="M538.23,361.78c14.8,18.39,7.33,7.62,17.96,21.27s8.33,11.78,12.65,18.11,6.47,7.27,6.9,9.89"/>
    <path class="cls-11" d="M565.55,341.23s-1.6,8.72-1.03,12.41.47,7.28,1.03,8.72-.93,1.58,1.11,2.16"/>
    <path class="cls-11" d="M583.07,344.53c-1.8.74-5.96,2.73-7.33,6.61-.48,1.36-.69,3.16-.72,3.45,0,0-.15,1.33,0,5.75h0c.48.77.96,1.53,1.44,2.3"/>
    <path class="cls-2" d="M597.72,364.51c-1.12,4.59-2.03,7.95-2.82,10.66-.37,1.24-.92,3.08,0,4.51.84,1.3,2.57,1.72,2.82,1.78.37.09,1.31.26,2.38,0,1.82-.44,2.19-1.69,5.95-5.81,1.88-2.06,1.44-1.37,2.53-2.61.27-.31.68-.79,1.36-1.27.62-.45,1.21-.71,1.62-.87"/>
    <path class="cls-2" d="M624.18,356.18c-1.46,2.93-2.33,5.52-2.88,7.48-.76,2.73-1.14,4.1-1.13,5.9,0,.72.07,2.13,0,4.31-.03.74-.06,1.36-.09,1.77"/>
    <path class="cls-5" d="M648.88,338.66c3.08-2.38,9-6.94,13.1-10.1,3-2.31,6.24-4.32,9.08-6.81.66-.58,2.87-2.54,6.25-4.35,1.91-1.03,3.8-2.04,4.35-1.51.97.92-2.45,5.93-5.68,10.6-5.69,8.24-10.82,14.18-13.44,17.13-4.06,4.57-3.36,3.39-5.68,6.15-4.8,5.7-4.86,7.2-12.87,19.11-1.76,2.62-2.96,5.59-4.73,8.2-.34.5-1.46,2.14-1.89,4.52-.19,1.06-.45,2.53,0,2.78,1.24.68,6.17-8.57,15.9-19.15,2.9-3.16,6.03-5.97,12.28-11.59,3.64-3.28,5.58-4.88,8.54-6.34,3.68-1.82,7.87-3.89,12.11-2.27,4.58,1.75,6.36,7.12,7.19,9.65,5.3,16.16-7.87,34.69-14.57,44.28-11.32,16.2-14.05,20.41-17.79,20.06-2.72-.25-5.3-2.41-6.43-4.73-1.94-3.97.38-8.36,2.46-12.3,1.17-2.21,4.15-7.86,8.49-8.33,2.1-.22,3.81.57,3.81.57,1.32.61,2.11,1.51,2.6,2.08.99,1.15,1.49,2.3,1.75,3.03"/>
    <path class="cls-5" d="M731.23,330.56c-.26,8.6-1.17,15.49-1.95,20.24-1.85,11.15-4.52,19.3-1.56,26.27.29.68,1.61,3.65,3.51,7.3,1.5,2.88,2.85,5.19,3.78,6.73"/>
    <path class="cls-5" d="M724.85,327.03c14.86-2.17,24.68-5.87,31.01-8.96.36-.17,4.59-2.24,10.5-4.48,9.94-3.76,16.28-6.16,18.63-3.76,2.06,2.11-.67,6.22-2.23,15.84-1.16,7.15-.74,11.7-.78,15.56-.08,8.12-2.11,22.78-10.15,51.35"/>
    <path class="cls-8" d="M730.7,371.56c5.78-2.73,12.19-6.23,18.88-10.73,3.98-2.68,6.27-8.1,11.71-8.78.56-.07,4.61-.54,5.86,1.54,1.1,1.83-.2,5.3-3.67,8.21"/>
    <path class="cls-5" d="M730.7,400.38c2.91-3.7,15.56-18.92,36.83-21.33,9.65-1.09,17.65.84,22.66,2.54"/>
    <path class="cls-9" d="M829.73,284.43c-.37,2.89-.53,6.48,0,10.53.12.91.4,2.58.85,4.51.34,1.48.7,2.72.99,3.68"/>
    <path class="cls-9" d="M808.67,295.97c2.45,2.09,4.98,4.48,7.52,7.19.42.45,1.52,1.67,2.84,3.18.89,1.02,1.63,1.89,2.17,2.54"/>
    <polyline class="cls-2" points="868.77 272.62 856.24 287.19 844.35 291.27 846.68 296.37"/>
    <path class="cls-6" d="M813.73,349.41l-11.1-10.53-5.98-7.12,13.1-3.53,5.19-8.35,7.9-7.99,35.31-14.3,21.93-7.4h9.68s8.54.57,3.7,7.4-11.67,17.65-14.81,20.22c-3.13,2.56-5.66,7.21-9.88,7.97s-8.92,2.45-8.92,2.45"/>
    <path class="cls-9" d="M833.98,347.64l-7.29-6.97-4.98-7.24,6.13-6.07h6.13l8.15-2.43h3.66l1.67,5.22-2.19,7.77-4.54,5.83-4.37.97,3.15,23.1s1.18,17.3,1.22,18.1-1.22,27.48-1.22,27.48l-1.62,16.82-1.53,5.64"/>
    <polyline class="cls-9" points="809.65 374.51 821.76 386.87 824.33 388.07"/>
    <path class="cls-9" d="M802.76,376.12l26.63-18.74s28.29-15.79,35.85-13.34c7.56,2.45,8.23,3.56,4.45,14.9s-7.78,25.48-17.12,17.18c-9.34-8.29-8.22-7.4-8.22-7.4"/>
    <path class="cls-9" d="M912.93,395.13l15.14-18.06,5.05-4.02s27.08,13.47,28.92,15.02,17.78,9.97,17.78,9.97"/>
    <line class="cls-10" x1="1006.09" y1="413.35" x2="1025.46" y2="386.41"/>
  </g>
</svg>