<?xml version="1.0" encoding="UTF-8"?>
<svg id="_レイヤー_1" data-name="レイヤー 1" xmlns="http://www.w3.org/2000/svg" viewBox="0 0 1019.88 450.7">
  <defs>
    <style>
      .cls-1 {
        fill:#262626;
        stroke: #262626;
        stroke-linecap: round;
        stroke-linejoin: round;
        stroke-width: 2px;
      }
    </style>
  </defs>
  <path d="M401.91,408.16c-9.73-.99-17.51-6.65-26.66-9.46.02,5.27-2.26,30.42-5.93,32.61-1.51.9-3,.35-4.45-.26-6.17-2.63.66-17.78-2.06-22.88l-36.18,38.48c-3.4,1.7-9.26-.62-7.49-5.04l28.12-27.67c8.39-10.29,11.34-18.67,16.41-29.77.9-1.98,3.14-3.3,3.95-5.52.38-1.04,1.8-7.23-1.24-5.98l-15.42,16.54-6.5-6.49c0-2.21,22.59-19.83,23.43-22.73.94-3.24-.11-7.57.23-11l-5.32,3.59c-13.6-6.1,3.56-11.95,5.14-17.47.96-3.35-1.96-10.14-1.01-15.16.16-.83,5.06-6.29,5.46-6.41,2.21-.66,7.22,3.94,7.47,5.43.18,1.09-4.12,6.69-2.19,9.84,3.85-.35,5.97,1.29,8.19,4.2-7.61,5.65-7.84,10.36-7.06,19.53,1.75.38,2.19-.06,3.45-.85,5.7-3.56,10.03-11.97,15.27-3.31-4,7.91-11.81,10.63-18.12,16.01l-1.65,22.93c6.15,4.67,10.26,7.82,18.23,9,2.57.38,5.95-.57,8.11,0,1.26.33.65,2.39.77,2.39h23.11c3.99,0,2.72,9.47,0,9.47-8.15,0-18.24.8-26.07,0Z" fill="#262626"/>
  <path d="M60.42,175.87c.13.29,1.59.34,1.88,1.25,2.41,7.57,1.26,10.9,10.13,14.51,47.85,19.51,89.17-24.65,116.05-58.11,4.03-5.01,5.4-13.4,12.49-3.89.07.42-3.63,6.57-4.25,7.38-17.86,23.42-48.83,55.47-77.23,66.03-19.34,7.19-43.39,5.53-58.85-9.11-6.86-6.5-8.1-10.57-9.98-19.62-5.54-26.69-.93-57.41-2.55-85.15,0-3.46,3.13-5.54,5.56-7.54,3.2.7,4.82,3.31,5.23,6.35,2.69,20.31-1.11,48.37-.11,69.93.12,2.63,1.26,17.14,1.62,17.96Z" fill="#262626"/>
  <path d="M775.5,291.32c3.7,1.8,5.65,9.15,5.75,13.09.37,13.87-2.75,56.8-8.78,67.91-6.46,11.9-10.16-.6-11.73-.92-6.97-1.41-21.81,9.58-25.85,15.43-4.19-1.11-5.08-8.88-5.48-9.28-1.07-1.08-7.94.45-9.26-7.91-1.47-9.25-.83-33.72-.12-43.77.29-4.09,1.39-8.27,1.84-12.36.77-1.22,1.84-2.11,3.05-2.87,12.33-7.74,29.76-16.55,44.41-19.55,1.71-.35,4.61-.52,6.16.24ZM729.57,325.92c-1.56,5.66,1.15,17.78,0,24.26,6.73-2.59,11.66-8.7,18.12-12.08,2.36-1.23,9.92-4.83,11.83-4.32,8.23,2.18,2.67,13.38-3.13,15.14l-3.7-3.29c-2.64,2.76-6.43,3.75-9.45,5.78-4.8,3.23-8,9.3-13.66,7.06-1.18,6.8,1.25,10.12,6.49,13.92,8.85-5.33,17.97-12.09,28.81-11.81,4.38-2.4,2.97-26.82,3.74-32.35.37-2.65,2.08-4.04,2.37-5.92.89-5.8-1.15-12.14,1.19-17.82l-1.12-2.28c-1.69-1.12-28.13,7.91-31.87,9.64-8.88,4.12-5.3,4.23-6.94,10.78-.33,1.32-2.5,2.68-2.67,3.29Z" fill="#262626"/>
  <path d="M841.74,324.91c-1.85,2.36-7.78,3.72-6.69,8.69l23.15-7.03c25.94-5.2,5.93,42.33-5.82,42.49-4.31.06-9.94-6.15-13.78-8.24-.96,6.27,1.29,12.31,1.27,18.36-.04,8.9-1.69,18.94-3.59,27.26-.54,2.38.58,5.17-.63,7.67-.74,1.53-4.23,2.06-4.76,4.69-7.49-4.88-3.08-12.63-2.92-19.47.4-16.76-.39-33.59-.06-50.34-7.02.1-10.39,7.64-16.58,8.29l8.96,10.53c.51,2.16-2.1,5.05-4.12,5.5-2.8.63-16.82-10.03-16.75-14.2.39-4.02,19.91-17.67,24.22-20.34.93-.58,2.06-.46,3.1-.44l-10.48-16.18c-.19-1.18,7.02-10.73,8.19-11.55.49-.35,10.68-4.19,11.28-4.24,9.08-.81,11.13,12.03,6.01,18.55ZM836.21,314.68c-3.99,1.89-13.32,3.08-10.78,8.92,4.73,10.84,12.88-6.55,10.78-8.92ZM862.29,335.98c-.68-.7-17.42,1.87-19.29,2.43-.95.28-.75,1.87-1.75,2.22-1.73.6-8.1-.19-7.25,2.87.85,3.07,5.39,7.19,7.7,9.56.5.51.22,2.16.76,2.66,1.35,1.29,10.09,5.7,12.04,5.21,2.29-2.94,9-23.7,7.79-24.94Z" fill="#262626"/>
  <path d="M665.17,328.48c-1,1.53-5.04,1.19-1.38,3.92,16.82-10.15,32.2-.24,28.97,19.48-2.55,15.55-18.57,42.3-31.35,51.53-1.21.88-4.92,2.89-6.25,3.25-6.75,1.81-10.22-5.98-9.76-12.08.73-9.63,15.97-26.65,24.32-13.66,8.62-11.8,13.45-27.78,12.45-42.59-3.39.44-7.86-.67-11.02.05-.84.19-.88,1.79-1.78,2.22-11.99,5.68-19.42,11.33-28.13,21.38-4.36,5.03-5.89,13.46-11.29.68l27.35-37.93c-.02-8.49-7.43,2.58-9.08,2.83-.62.1-4.78-2.2-4.93-2.45-3.11-5.3,7.53-10.05,10.02-12.04,3.85-3.09,15.91-14.69,20.2-14.73,3.12.58,5.92,3.95,4.93,7.2-5.39,7.01-8.48,15.63-13.27,22.95ZM665.15,391.21c.9-1.22,1.94-2.4.53-3.77-5.34-8.11-13.65,2.6-11.9,9.39.13.5,1.6,2.41,2.26,1.27,2.16-.66,7.75-5.04,9.11-6.89Z" fill="#262626"/>
  <path d="M853.84,267.5l3.66,5.16-5.88,6.5c7.77-2.6,15.11-3.44,23.03-4.79,1.83-.31,3.1-1.93,4.87-2.23,8.05-1.36,17.16,1.49,15.92,11.07-.92,7.1-26.42,27.71-33.8,31.53l-6.43-4.21c9.88-9.64,22.46-16.28,30.77-27.8-4.23-1.52-7.23,1.78-10.13,2.3-6.13,1.09-11.89,1.03-18.51,2.81-8.13,2.19-45.86,17.85-49,24.44-1.92,4.04,1.57,8.59-5.32,11.28l5.84,8.1c-4.07,10.94-18.1-5.35-17.8-10.48.15-2.6,7.77-11.09,10.18-13.63,3.16-3.32,6.6-5.93,10.07-8.86,0-.91-6.93-6-7.72-7.72-2.26-4.88,7.81-12.26,10.65-4.74,1.07,2.84-3.12,4.35,6.61,4.26,3.39-6.25-2.37-15.47,5.47-19.52,6.93,2.11,4.8,8.16,5.15,13.53.11,1.71-.87,3.48,1.76,2.91,4.66-1.01,12.26-20.8,20.61-19.93Z" fill="#262626"/>
  <path d="M607.97,12.48c6.72,23.18,8.49,54.17,1.51,78.71-8.13,28.56-28.5,66.8-46.69,90.64-3.79,4.96-6.59,9.41-11.62,2.62l-.09-2.36c5.95-5.87,8.59-12.47,12.91-19.23,25.8-40.4,41.67-72.72,38.84-123.39-.64-11.44-3.23-23.28-7.03-34.11,2.7-3.38,5.32-7.39,9.84-4.2,2.35,1.67,1.18,7.28,2.35,11.31Z" fill="#262626"/>
  <path d="M346.35,187.62c-2.24,4.05-5.15,9-7.87,12.78-1.96,2.73-3.97,5.49-6.5,7.74l-5.17-6.28c4.28-7.6,8.54-15.2,12.57-22.94,8.84-16.99,24.71-48.01,24.74-67.4,0-2.09-.79-4.14-.8-6.24-6.46-1.01-15.65,1.74-18.8,7.83-1.08,2.08.07,3.64-1.18,5.71-1.94,3.23-5.23,5.6-8.44,2.42-4.94-4.89-1-9.07,2.39-13.09,1.56-1.85,12.46-11.61,13.99-12.32,11.88-5.43,24.07,1.59,24.05,14.72-.03,17.8-19.85,60.58-28.98,77.09Z" fill="#262626"/>
  <path d="M406.04,82.72l-6.46,4.71-5.35-5.3c3.16-1.97,5.93-7.19,8.22-9.2,1.83-1.59,10.64-7.78,12.84-9.05,5.21-2.99,15.65-8.9,15.48,1.43-3.65,4.63-8.5,8.23-11.67,13.28-3.86,6.15-6.18,15.73-8.04,22.8-1.5,5.71,3.52,5.92,7.72,4.1,13.73-5.95,14.97-29.56,25.78-38.12,5.7,3.57,3.63,9.08,5.14,14.95s9.22,12.26-.23,15.7l-7.28-6.99c-3.32,6.4-17.61,24-23.99,25.72-4.19,1.13-10.31-.88-13.43-3.76-9.21-8.5,2.47-28.76,1.26-30.27Z" fill="#262626"/>
  <path d="M475.72,333.88c5.23,2.95-1.7,12.01.4,17.94,1.02,2.89,12.49,3.77,9.08,15.28-1.81,6.1-12.95,6.5-14.83,9.44-1.13,1.76-1.87,9.72-3.07,12.91-8.3,22.2-24.14,41.6-37.54,60.75l-2.84.5-4.1-5.03c10.47-17.03,24.52-33.34,32.25-51.87,3.23-7.74,7.78-22.17,9-30.07.99-6.44-.12-19.3,1.21-24.56.24-.93,2.48-1.6,3.6-2.6,1.43-1.28,2.05-5.39,6.84-2.69Z" fill="#262626"/>
  <path d="M465.31,322.95c4.43,3.53,37.25-25.77,40.1-5.58-.32.98-.57,2.2-1.3,2.94-.67.68-13.01,1.67-16.52,3-2.91,1.1-10.13,5.04-13.46,6.68-14,6.89-26.59,15.56-40.34,23.7,3.33,15.16-21.78,8.34-7.44-3.89,5.3-4.52,14.57-11.99,20.39-15.77,3.24-2.11,12.16-4.16,13.83-8.11-5.41-4.34-9.07-9.12-5.52-16.17s8.89-10.93,13.8-2.76c-8.23,5.42-2.65,9.54-3.54,15.97Z" fill="#262626"/>
  <path d="M20.33,160.86c1.68,1.59,3.63,2.8,4.12,5.31.83,4.3-.57,17.43-1.21,22.41-2.01,15.55-6.78,32.01-9.36,47.46-1.29,7.73-1.06,30.58-6.48,34.94-1.13.91-2.14,1.26-3.6,1.13l-3.13-1.72c-1.88-2.39.7-19.35,1.36-23.7,2.36-15.52,7.04-31.94,9.36-47.46,1.37-9.18.83-22.08,2.45-30.69.6-3.19,4.55-5.31,6.49-7.68Z" fill="#262626"/>
  <path d="M550.15,361.28c3.38,4.22,7.8,7.74,11.12,12,1.96,2.52,10.93,15.8,10.75,17.67-.15,1.58-3.19,5.55-4.81,4.85-3.77-3.52-7.21-7.61-10.19-11.76-1.6-2.23-5.79-11.26-6.75-12.21s-5.12-1.24-6.17-3.88c-2.02,5.27-12.1,11.07-14.15,14.25-2.18,3.38-3.65,17.72-10.79,13.03s1.06-9.64.71-13.63c-.28-3.12-4.85-4.38-4.84-7.16,0-3.04,6.64-6.4,7.73-8.89,1.69-3.87-1.01-10.2,5.77-11.73,3.56,2.16,5.35,7.57,10.24,7l-5.97-7.68,6.56-7.65c4.38,3.4,5.19,9.48,8.48,14.03.62.86,1.82,1.15,2.31,1.77Z" fill="#262626"/>
  <path d="M304.53,82.32c4.66,3.01,11.86,4.62,4.41,10.46l5.87,5.91c-4.23,5.58-8.4,7.28-15.36,7.74l1.72,9.44c1.47,1.82,1.16.85,2.41,0,2.63-1.8,9.14-12.45,12-12.95l6.33,5.24c-5.58,4.02-12.1,18.59-19.57,18.19-5.44-.3-8.22-7.56-11.24-8.76-2.46-.98-7.25,2.86-10.12-2.93-1.02-5.32,8.48-7.86,7.79-12.4l-8.3-4.73c.5-1.2,17.77-17.24,18.95-17.77,4.35-1.97,3.56,1.56,5.13,2.58Z" fill="#262626"/>
  <path d="M509.66,58.58c.75.83,3.09.04,1.3,2.87-2.84,4.48-6.32,3.78-9.55,5.85-3.95,2.53-13.51,20.17-12.26,24.12,1.69,5.33,5.03-.06,5.51-.31,7.03-3.55,14.02-7.08,20.97-10.8l4.11,6.39c-3.27,6.63-9.81,6.57-14.39,9.14-2.35,1.32-6.59,5.64-9.16,6.48-10.97,3.57-20.65-3.56-17.82-15.24.25-1.05,2.78.18,2.46-4.95-.08-1.24-2.37-9.29-2.74-9.81-.31-.44-7.34-3.46-7.98-6.76,4.7-4.94,7.78-10.19,13.65-3.01,1.87,2.29,1.1,5.27,4.69,5.64,7.07-4.58,12.78-19.02,21.22-9.62Z" fill="#262626"/>
  <path d="M345,356.72c2.44,2.84,2.44,5.25,1.89,9.52-.3,2.35-5.21,1.8-.37,7.03-6.54,4.94-8.19,16.14-18.14,15.79-5.42-.19-16.55-11.87-20.6-15.98-.63-3.56,8.96-7.1,11.16-8.72,7.08-5.21,17.47-17.61,26.05-7.65ZM336.13,364.38c-2.75-2.56-21.08,10.56-7.66,12.95,5.57-1.78,7.42-7.57,7.66-12.95Z" fill="#262626"/>
  <path d="M961.06,382.86c-2.13-.89-5.15-2.33-7.77-3.45-8.84-3.77-18.88-8.06-26.48-13.8h-1.66c.39,2.75-3.43,2.97-4.29,4.67-.81,1.6.98,3.61.54,5.18-.08.29-3.96,4.24-4.25,4.3-4.88,1.01-6.87-2.27-9.81-5.32,5.51-4.18,11.48-19.1,19.4-18.34,3.53.34,18.34,9.27,22.99,11.48,2.88,1.37,35.8,11.97,20.4,18.75-.44.2-7.83-2.94-9.08-3.46Z" fill="#262626"/>
  <path d="M102.27,91.1c7.64-1.27,4.63,20.8,5.22,25.28.26,2,1.78,7.73,2.38,10.64s5.24,11.44-.8,12.43c-1.44.24-7.27-5.72-8.06-7.13-3.16-5.69-4.26-29.55-3.03-35.97.46-2.4,2.37-3.99,4.29-5.25Z" fill="#262626"/>
  <path d="M1011.25,369.24c3.11-.81,8.66,6.5,8.63,8.74-.02,1.46-1.93,3.07-2.28,4.89-.5,2.62.05,7.17-.65,8.65-.59,1.25-8.07,8.49-9.33,8.28-3.07-3.56-10.9-10.05-10.25-14.61.4-2.85,11.62-15.36,13.88-15.95Z" fill="#262626"/>
  <path d="M140.27,88.8c1.37-.38,2.66-.33,3.92.38,1.46.76,1.79,2.24,2.32,3.63.87,2.31,5.65,21.39,5.89,23.76.21,2.08.74,5.34-1.87,6.22-7.09,2.4-9.69-4.18-11.42-9.57-1.6-4.98-4.87-22.74,1.17-24.42Z" fill="#262626"/>
  <path d="M556.56,46.02l6.27-2.24,4.3,5.04c-4.83,2.83-8.71,15.24-14.76,14.55-6.87-.78-8.84-27.84.14-27.98,9.84-.15,3.54,10.1,4.04,10.63Z" fill="#262626"/>
  <path d="M575.78,338.58c-.7,1.26.04,3.35-.48,4.86-1.72,4.98-9.59,3.95-13.27,6.66-7.42-6.17-9.96-14.81.04-19.96l5.6,3.38c4.11-4.86,7.85-4.69,11.26.87.99,3.73-2.59,3.19-3.14,4.18Z" fill="#262626"/>
  <path d="M218.47,110.06c1.85-.7,5.13,1.97,5.72,3.45.18.45.4,9.16.33,9.77-.41,3.28-7.7,18.56-11.03,18.57-8.89-5.92-.33-10.3.34-17.47.6-6.35-3.49-9.82,4.64-14.32Z" fill="#262626"/>
  <path d="M595.66,359.65c3.36,1.43,3.54-2.27,4.27-2.42,3.14-.64,5.77,1.57,7.24,4.17-1.51,3.84-9.39,10.5-13.23,10.13-1-.09-6.18-3.66-6.64-4.44-6.39-10.86,8.49-24.33,8.36-7.45Z" fill="#262626"/>
  <path d="M248.43,125.31l.12-2.21,1.66-.15,5.29,5.32c-4.86,6.54-10.88,11.21-18.3,5.32-7.14-5.67.26-8.88,3.05-14.11l8.19,5.82Z" fill="#262626"/>
  <path d="M245.37,111.59c-2.88,2.92-10.39,9.34-14.68,7.25-8.07-3.95,6.83-12.31,10.18-14.16.82-.45.17-3.25,4.01-1.26,5.77,3,3.41,5.2.48,8.17Z" fill="#262626"/>
  <path d="M621.47,345.68c1.19,2.02-2.79,15.46-5.33,16.17-9.58,2.68-7.23-17.09-.76-19.86.53-.08,5.91,3.39,6.09,3.7Z" fill="#262626"/>
  <path d="M346.64,77.83c-4.03.85-4.79,6.82-9.76,5.79-1.4-.29-5.53-4.6-5.52-6.23.01-7.15,16.21-9.99,15.29.44Z" fill="#262626"/>
  <path class="cls-1" d="M831.48,415.27c.2,1.38.4,2.76.59,4.14" fill="#262626"/>
  <path class="cls-1" d="M286.37,98.1c-1.38.2-2.77.39-4.15.59" fill="#262626"/>
  <path class="cls-1" d="M311.25,100.47c1.38-.2,2.77-.39,4.15-.59" fill="#262626"/>
  <path class="cls-1" d="M758.01,343.08v6.51" fill="#262626"/>
  <path class="cls-1" d="M242.52,130.05c-1.38-.1-2.77-.2-4.15-.3" fill="#262626"/>
  <path class="cls-1" d="M479.23,63.19c.1,1.18.2,2.37.3,3.55" fill="#262626"/>
  <path class="cls-1" d="M563.07,339.52c-1.19-.1-2.37-.2-3.56-.3" fill="#262626"/>
  <path class="cls-1" d="M758.89,337.75c.1.99.2,1.97.3,2.96" fill="#262626"/>
  <path class="cls-1" d="M218.82,118.22c-.59-.1-1.19-.2-1.78-.3" fill="#262626"/>
  <path class="cls-1" d="M338.51,117.04c-.59-.1-1.19-.2-1.78-.3" fill="#262626"/>
  <path class="cls-1" d="M618.17,350.18c.59-.1,1.19-.2,1.78-.3" fill="#262626"/>
</svg>
