<?xml version="1.0" encoding="UTF-8"?>
<svg id="_レイヤー_2" data-name="レイヤー 2" xmlns="http://www.w3.org/2000/svg" viewBox="0 0 131.53 26.76">
  <defs>
    <style>
      .cls-1 {
        fill: #e86d26;
      }
    </style>
  </defs>
  <g id="_레이어_1" data-name="레이어 1">
    <g>
      <g>
        <path class="cls-1" d="M36.03,6.01c-.77-.52-1.98-.78-3.6-.78-.47,0-1.05,0-1.73.02-.68.02-1.12.02-1.33.02h-1.33v.15c.05,1.07.07,2.89.07,5.4s-.02,4.25-.06,5.38v.15s3.71,0,3.71,0c2.06,0,3.65-.51,4.73-1.51,1.08-1.01,1.63-2.47,1.63-4.37,0-2.04-.7-3.54-2.08-4.47ZM36.3,10.78c0,3.15-1.65,4.67-5.04,4.67-.41,0-.92-.02-1.52-.07-.04-1.44-.06-3.12-.06-4.99,0-1.36.01-2.77.04-4.19.7-.05,1.46-.07,2.24-.07,1.52,0,2.63.36,3.31,1.08.68.72,1.02,1.92,1.02,3.57Z"/>
        <path class="cls-1" d="M45.78,15.5c-.38,0-.46-.17-.48-.23-.03-.07-.07-.25-.07-.67l.06-3.14v-.19c0-.95-.21-1.66-.62-2.11-.42-.45-1.09-.68-2.02-.68-1.02,0-1.91.31-2.63.92l-.05.04-.04,1.05h.35l.04-.06c.47-.7,1.1-1.04,1.92-1.04.58,0,1,.15,1.24.45.25.31.37.8.37,1.47v.26c-.12.09-.38.2-.88.31-.59.12-1.17.23-1.76.35-1.29.28-1.95,1.01-1.95,2.19,0,1.38.78,2.08,2.32,2.08.85,0,1.61-.31,2.27-.92.18.63.61.78.95.78.31,0,.75-.08,1.34-.26l.13-.04-.11-.56h-.39ZM42.11,15.56c-.86,0-1.26-.43-1.26-1.36,0-.54.23-.91.7-1.15.38-.19,1.14-.39,2.27-.59v1.87c0,.24-.07.43-.23.58-.44.44-.92.65-1.48.65Z"/>
        <path class="cls-1" d="M52.93,8.62l-.13-.04-.04.13c-.38,1.22-.97,2.77-1.76,4.61l-.43,1-.42-1.04c-.85-2.08-1.41-3.62-1.69-4.57l-.04-.13-.13.03c-.43.08-1.07.08-1.48,0l-.27-.05.11.25c1.32,2.95,2.15,4.85,2.46,5.67l.64,1.69-.34.79c-.63,1.45-1.21,2.63-1.73,3.51l-.17.29.32-.07c.37-.08.72-.08,1.02,0l.14.03.03-.14c.19-.74.67-1.99,1.43-3.71l2.12-4.79c.68-1.54,1.18-2.63,1.5-3.25l.15-.29-.31.08c-.3.08-.7.08-.98,0Z"/>
        <path class="cls-1" d="M60.3,10.39c1.38-.44,2.08-1.3,2.08-2.55,0-.9-.35-1.56-1.03-1.97-.66-.39-1.68-.59-3.05-.59h-2.82v.15c.07,1.33.1,3.5.1,6.45,0,1.88-.05,3.34-.16,4.34l-.02.18.18-.02c.37-.04.65-.06.82-.06.16,0,.44.01.85.03.42.02.75.03,1.02.03,2.92,0,4.41-1.13,4.41-3.36,0-1.42-.8-2.3-2.38-2.64ZM57.13,10.03v-1.99c0-.72.02-1.36.07-1.91.39-.04.72-.06.99-.06,1.66,0,2.46.6,2.46,1.85,0,1.62-1.15,2.32-3.52,2.11ZM57.08,10.96c.49-.04.81-.05.96-.05,1.95,0,2.91.75,2.91,2.29,0,.73-.24,1.29-.75,1.71-.5.42-1.21.63-2.1.63-.28,0-.59-.04-.94-.12-.06-.68-.08-1.69-.08-3.03v-1.43Z"/>
        <path class="cls-1" d="M67.95,8.46c-1.13,0-2.05.37-2.74,1.11-.69.73-1.03,1.72-1.03,2.93s.36,2.14,1.07,2.88c.71.74,1.66,1.12,2.8,1.12,1,0,1.93-.31,2.77-.93l.06-.04v-.26c0-.12.01-.32.03-.59l.03-.39-.27.27c-.68.68-1.47,1.03-2.33,1.03-1.66,0-2.49-1-2.51-3.06h5.43v-.14s0-.09.02-.17v-.17c0-1.14-.29-2.03-.87-2.65-.58-.62-1.4-.94-2.45-.94ZM66.45,9.91c.39-.45.85-.68,1.42-.68s1.01.2,1.34.6c.33.41.5.99.5,1.73v.13h-3.89c.05-.73.26-1.33.63-1.79Z"/>
        <path class="cls-1" d="M78.81,15.5c-.38,0-.46-.17-.48-.23-.03-.07-.07-.25-.07-.67l.06-3.14v-.19c0-.95-.21-1.66-.62-2.11-.42-.45-1.09-.68-2.02-.68-1.02,0-1.91.31-2.63.92l-.05.04-.04,1.05h.35l.04-.06c.47-.7,1.1-1.04,1.92-1.04.58,0,1,.15,1.24.45.25.31.37.8.37,1.47v.26c-.12.09-.38.2-.88.31-.59.12-1.17.23-1.76.35-1.29.28-1.95,1.01-1.95,2.19,0,1.38.78,2.08,2.32,2.08.85,0,1.61-.31,2.27-.92.18.63.61.78.95.78.31,0,.75-.08,1.34-.26l.13-.04-.11-.56h-.39ZM75.14,15.56c-.86,0-1.26-.43-1.26-1.36,0-.54.23-.91.7-1.15.38-.19,1.14-.39,2.27-.59v1.87c0,.24-.07.43-.23.58-.44.44-.92.65-1.48.65Z"/>
        <path class="cls-1" d="M85.87,8.62l-.19-.04.02.19c.05.63.08,1.27.08,1.93,0,2.09-.09,3.35-.27,3.75-.31.71-.87,1.05-1.69,1.05-1.15,0-1.7-.75-1.7-2.29s.08-2.96.24-4.44l.02-.19-.19.04c-.4.08-.92.08-1.25,0l-.18-.04v.19c.03.56.04,1.01.04,1.34,0,.73-.01,1.51-.04,2.33-.03.82-.04,1.27-.04,1.35,0,1.82.89,2.75,2.64,2.75,1.05,0,1.86-.38,2.42-1.12,0,.25.01.43.01.54v.45l.16-.02c.23-.03.46-.05.67-.05.12,0,.27.02.47.05l.17.03v-.18c-.05-.79-.07-1.81-.07-3.03,0-2.14.03-3.63.08-4.42v-.19s-.18.04-.18.04c-.34.08-.85.08-1.22,0Z"/>
        <path class="cls-1" d="M99.48,5.08c-1.82,0-3.29.53-4.37,1.57-1.08,1.05-1.63,2.45-1.63,4.18s.5,3.23,1.49,4.23c.99,1,2.39,1.5,4.17,1.5,1.58,0,2.8-.31,3.62-.91l.05-.04.13-1.44-.26.21c-1.05.85-2.18,1.28-3.35,1.28s-2.17-.43-2.87-1.27c-.71-.85-1.06-2.04-1.06-3.56s.36-2.77,1.07-3.62c.71-.84,1.7-1.27,2.97-1.27,1.36,0,2.37.53,3.07,1.62l.26.41v-.49c0-.46.08-.95.25-1.47l.04-.12-.11-.05c-1.03-.51-2.19-.77-3.46-.77Z"/>
        <path class="cls-1" d="M106.14,4.22h-1.62v.15c.05.58.07,1.61.07,3.09v4.14c0,2.35-.02,3.9-.06,4.6v.18s.16-.03.16-.03c.42-.06.83-.06,1.27,0l.17.02v-.17c-.06-1.14-.09-3.49-.09-6.98,0-2.26.03-3.9.08-4.86v-.15Z"/>
        <path class="cls-1" d="M108.63,5.34c-.19.18-.28.4-.28.66s.09.48.28.67c.19.18.41.28.67.28s.48-.09.67-.28c.19-.18.28-.41.28-.67s-.09-.48-.28-.66c-.37-.36-.97-.36-1.34,0Z"/>
        <path class="cls-1" d="M110.1,8.57l-.19.04c-.32.08-.84.08-1.23,0l-.18-.04v.18c.06,1.28.09,2.47.09,3.53,0,1.16-.03,2.48-.08,3.91v.18s.17-.04.17-.04c.48-.1.8-.1,1.23,0l.18.04v-.19c-.07-1.43-.1-2.75-.1-3.91,0-1.06.03-2.25.09-3.53v-.19Z"/>
        <path class="cls-1" d="M118.97,13.72v-2.29c0-1.97-.89-2.97-2.65-2.97-.94,0-1.72.4-2.31,1.2v-1.08l-.18.05c-.3.08-.82.08-1.2,0l-.18-.04v.19c.05.75.07,1.95.07,3.58v1.12c0,1.23-.02,2.15-.06,2.74v.19s.17-.04.17-.04c.48-.1.8-.1,1.25,0l.18.04v-.19c-.04-.53-.06-1.52-.06-2.95v-.71c0-1.15.17-1.95.51-2.38.33-.42.78-.62,1.36-.62,1.12,0,1.66.72,1.66,2.19,0,1.86-.03,3.36-.09,4.46v.19s.17-.04.17-.04c.46-.1.77-.1,1.23,0l.18.04v-.18c-.04-.88-.05-1.71-.05-2.49Z"/>
        <path class="cls-1" d="M122.98,8.57l-.19.04c-.32.08-.84.08-1.23,0l-.18-.04v.18c.06,1.28.09,2.47.09,3.53,0,1.16-.03,2.48-.08,3.91v.18s.17-.04.17-.04c.48-.1.8-.1,1.23,0l.18.04v-.19c-.07-1.43-.1-2.75-.1-3.91,0-1.06.03-2.25.09-3.53v-.19Z"/>
        <path class="cls-1" d="M121.51,5.34c-.19.18-.28.4-.28.66s.09.48.28.67c.19.18.41.28.67.28s.48-.09.67-.28c.19-.18.28-.41.28-.67s-.09-.48-.28-.66c-.37-.36-.97-.36-1.34,0Z"/>
        <path class="cls-1" d="M128.78,9.26c.93,0,1.59.46,2.01,1.4l.18.4.09-.42c.11-.51.25-.95.42-1.33l.05-.12-.12-.06c-.83-.43-1.72-.65-2.64-.65-1.21,0-2.2.37-2.94,1.1-.74.73-1.12,1.72-1.12,2.93s.36,2.18,1.06,2.91c.7.73,1.64,1.1,2.78,1.1s2.09-.28,2.79-.82l.07-.05v-.08c-.02-.05-.03-.15-.03-.29,0-.09.01-.28.03-.57l.03-.39-.27.28c-.71.73-1.48,1.09-2.28,1.09s-1.41-.27-1.88-.84c-.47-.57-.71-1.36-.71-2.35s.22-1.84.66-2.4c.44-.55,1.03-.82,1.82-.82Z"/>
      </g>
      <g>
        <path class="cls-1" d="M68.19,24.81s-.01.05-.04.07c-.38.17-1.02.33-1.41.37-.07,0-.17.01-.22.01-.28,0-.4-.09-.48-.31-.01-.03-.02-.15-.02-.29v-1.86c-.08-.08-.21-.15-.35-.19l.04-.16s.02-.03.06-.03c.19,0,.62.02.81.05.17,0,.58-.03.69-.05l.15-.1c.13,0,.35.01.46.03.06.01.08.05.08.1,0,.12-.03.22-.07.26-.02.02-.05.03-.09.03l-1.23.05v1.91c0,.07.03.1.1.1.41,0,1.07-.07,1.43-.16.04,0,.06,0,.07.03l.03.13ZM68.27,21.68s.03-.04.08-.04c.21.01.56.09.72.16.05.02.07.06.07.13l-.02.28v2.94c0,.34-.07.91-.17,1.24h-.29c-.04-.23-.06-.82-.06-1.07v-1.53c-.17,0-.41.01-.5.02-.11,0-.27.04-.38.08-.17-.07-.31-.17-.42-.28-.02-.02-.02-.04-.01-.06l.04-.07c.14.01.32.02.47.02.18,0,.56-.01.8-.03v-1.33c-.07-.1-.23-.21-.4-.27l.06-.17ZM69.27,21.27s.03-.04.08-.04c.22.01.61.09.77.17.06.02.08.07.07.13l-.02.3v3.62c0,.35-.07.96-.18,1.31h-.3c-.03-.21-.06-.88-.06-1.13v-3.89c-.08-.11-.25-.22-.43-.29l.06-.17Z"/>
        <path class="cls-1" d="M72.68,24.82c-.78,0-1.36-.52-1.36-1.25s.58-1.25,1.36-1.25,1.35.52,1.35,1.25-.57,1.25-1.35,1.25ZM72.68,22.75c-.44,0-.77.31-.77.82s.33.81.77.81.78-.3.78-.81-.33-.82-.78-.82ZM74.99,26.76c-.03-.22-.05-.92-.05-1.17v-3.82c-.09-.13-.27-.24-.48-.31l.06-.18s.02-.03.07-.03c.24.01.65.09.84.17.06.02.08.07.08.14l-.02.33v3.54c0,.35-.07.99-.18,1.35h-.31Z"/>
        <path class="cls-1" d="M80.99,24.19c.22,0,.55.05.69.1.05.02.09.06.09.11,0,.13-.09.24-.15.27-.15-.02-.52-.03-.7-.03-.11,0-.37,0-.7,0v.81c0,.33-.08.96-.18,1.27h-.31c-.03-.25-.06-.84-.06-1.11v-.97l-1.09.02v.68c0,.33-.08.96-.18,1.27h-.31c-.03-.24-.06-.84-.06-1.11v-.84c-.14,0-.24.01-.29.01-.15.01-.47.07-.62.11-.22-.07-.46-.22-.61-.36-.02-.02-.03-.05-.02-.07l.05-.09c.21.04.49.06.69.06.36,0,3.14-.03,3.54-.06l.23-.1ZM77.64,22.08c-.07-.07-.22-.17-.37-.21l.04-.16s.02-.03.07-.03c.2,0,.59.03.75.07.05.02.07.05.07.11v.27s0,.25,0,.25h1.87v-.52c-.07-.09-.22-.18-.37-.23l.06-.16s.03-.04.08-.03c.2.01.57.09.73.15.05.02.07.05.07.1v.26s-.02.9-.02.9c0,.17-.03.39-.07.53l.11.05s.05.03.05.07c0,.09-.03.18-.06.22-.54,0-1.91,0-2.5.01-.03.09-.07.15-.11.19h-.31c-.04-.11-.06-.26-.06-.37l-.02-1.47ZM78.19,22.73v.66s1.88-.01,1.88-.01v-.66h-1.88Z"/>
        <path class="cls-1" d="M87.06,21.27s.02-.03.07-.03c.24.01.65.09.84.17.06.02.08.07.08.14l-.02.33v3.54c0,.35-.07.99-.18,1.35h-.31c-.03-.22-.06-.92-.06-1.17v-.58c-.72.17-2.07.35-2.81.39-.13,0-.37.06-.49.11-.21-.1-.45-.26-.62-.4-.02-.02-.03-.04-.02-.07l.05-.09c.21.03.48.05.69.05.85-.02,2.43-.15,3.19-.3v-2.93c-.09-.13-.27-.24-.47-.31l.06-.18ZM84.08,23.11c0-.64.54-1.11,1.29-1.11s1.3.47,1.3,1.11-.55,1.12-1.3,1.12-1.29-.48-1.29-1.12ZM84.64,23.11c0,.43.31.7.73.7s.73-.27.73-.7-.31-.7-.73-.7-.73.27-.73.7Z"/>
        <path class="cls-1" d="M90.68,24.32c-.19.02-.38.03-.53.05-.12,0-.38.07-.49.11-.21-.1-.43-.24-.59-.38-.03-.02-.03-.04-.02-.07l.04-.09c.2.03.45.05.66.05.73,0,2.14-.11,2.82-.25.03,0,.06,0,.06.03l.02.14s-.01.05-.04.06c-.33.09-.86.19-1.39.27v.18c0,.22-.06.53-.14.69h-.35c-.03-.15-.06-.41-.06-.57v-.22ZM89.7,22.65c0-.6.55-.97,1.22-.97s1.23.38,1.23.97-.56.96-1.23.96-1.22-.38-1.22-.96ZM90.25,22.65c0,.37.3.59.67.59s.68-.22.68-.59-.3-.6-.68-.6-.67.22-.67.6ZM93.24,26.18c.18,0,.45.02.57.05.06.01.09.05.09.1,0,.14-.04.23-.07.27-.02.02-.06.03-.1.03l-2.5.02c-.41,0-.56-.16-.56-.49v-.49c-.09-.07-.25-.14-.4-.19l.03-.15s.03-.05.07-.05c.22,0,.6.03.77.06.07.02.1.06.1.13v.28s0,.41,0,.41c0,.1.04.14.14.14.37,0,1.31,0,1.65-.02l.21-.11ZM93.01,21.76c-.09-.13-.26-.24-.46-.31l.06-.18s.02-.03.07-.03c.24.01.64.09.82.17.06.02.08.07.07.14l-.02.32v2.42c0,.38-.07.95-.18,1.28h-.32c-.02-.15-.04-.48-.05-.76-.19,0-.43.03-.53.05-.1.01-.26.05-.36.09-.16-.07-.3-.16-.41-.26-.02-.02-.03-.04-.02-.06l.04-.08c.14.01.31.02.46.02.17,0,.54-.03.81-.05v-2.75Z"/>
      </g>
      <path class="cls-1" d="M12.41.27v1.7c3.7,1.05,6.42,4.46,6.42,8.49,0,4.59-3.52,8.38-8.01,8.79V.02c-.27-.02-1.11-.03-1.11-.02C5.93.15,2.9,3.27,2.9,7.08c0,.11.01.21.02.31-1.77,1.39-2.91,3.54-2.91,5.96,0,4.18,3.4,7.58,7.58,7.58h2.41c5.78,0,10.48-4.7,10.48-10.48,0-4.95-3.45-9.1-8.06-10.19ZM9.17,19.29h-1.59c-3.27,0-5.93-2.66-5.93-5.93,0-1.57.62-2.99,1.61-4.05.85,2.58,3.14,4.5,5.91,4.82v5.16ZM9.17,12.47c-2.25-.34-4.05-2.06-4.51-4.27.86-.49,1.86-.78,2.92-.78v-1.65c-1.06,0-2.07.22-2.99.62.31-2.41,2.19-4.33,4.58-4.69v10.76Z"/>
    </g>
  </g>
</svg>