<?xml version="1.0" encoding="UTF-8"?>
<svg id="_レイヤー_2" data-name="レイヤー 2" xmlns="http://www.w3.org/2000/svg" viewBox="0 0 204.45 44.23">
  <defs>
    <style>
      .cls-1 {
        fill: #445b4e;
      }
    </style>
  </defs>
  <g id="_레이어_1" data-name="레이어 1">
    <g>
      <g>
        <path class="cls-1" d="M5.64,28.88c2.14-3.16,6.74-6.06,6.74-6.06,0,0-4.77-6.13-7.97-9.75-.46-.52-.95-1.06-1.44-1.6-1.88,3.31-2.96,7.13-2.96,11.21,0,5.01,1.63,9.65,4.38,13.4-.43-2.18-.57-4.52,1.25-7.2Z"/>
        <path class="cls-1" d="M31.9,31.49s3.31,4.67,4.77,7.17c.25.42.5.84.74,1.25,1.45-1.24,2.75-2.67,3.85-4.24-.57-.33-1.08-.61-1.46-.79-2.17-1.03-7.9-3.4-7.9-3.4Z"/>
        <path class="cls-1" d="M44.22,29.77c.14-.41.26-.84.37-1.26-2.55-2.64-5.99-6.04-8.89-8.36-5.38-4.28-14.3-10.29-14.3-10.29,0,0,1.45-.8,3.35-.8,1.9-.03,7.15,1.05,15.29,9.41,2.39,2.46,4.08,4.24,5.28,5.54.03-.44.04-.89.04-1.33C45.35,10.15,35.2,0,22.68,0c-5.13,0-9.87,1.71-13.67,4.58,4.16,1.95,12.11,6.21,21.96,14.06,6.51,5.18,10.66,8.75,13.26,11.13Z"/>
        <path class="cls-1" d="M14.66,16.79c-.03-3.21,3.03-5.76,3.03-5.76,0,0-2.74-2.07-6.92-4.38-.96-.53-1.83-1-2.58-1.41-1.78,1.48-3.33,3.23-4.59,5.18,4.33,4.45,9.6,10.02,12.03,13.23,3.49,4.62,10.94,15.8,14.11,20.59.65-.21,1.3-.46,1.92-.73-1.76-3.08-5.23-8.89-9.28-14.26-5.87-7.76-7.69-9.24-7.72-12.45Z"/>
      </g>
      <g>
        <polygon class="cls-1" points="74.69 26.2 64.99 13.57 64.94 13.51 62.72 13.51 62.72 30.43 65.16 30.43 65.16 17.64 74.87 30.27 74.91 30.33 77.15 30.33 77.15 13.41 74.69 13.41 74.69 26.2"/>
        <polygon class="cls-1" points="92.44 13.51 85.63 30.24 85.55 30.43 88.11 30.43 93.62 16.59 99.08 30.34 99.11 30.43 101.78 30.43 94.91 13.51 92.44 13.51"/>
        <polygon class="cls-1" points="106.5 15.75 112.41 15.75 112.41 30.43 114.85 30.43 114.85 15.75 120.75 15.75 120.75 13.51 106.5 13.51 106.5 15.75"/>
        <path class="cls-1" d="M141.56,23.12c0,1.08-.2,2.04-.59,2.86-.39.81-.96,1.45-1.69,1.89-.72.45-1.6.68-2.6.68s-1.87-.23-2.6-.68c-.73-.45-1.3-1.09-1.69-1.89-.39-.81-.59-1.78-.59-2.86v-9.61h-2.44v9.61c0,1.53.3,2.89.9,4.04.6,1.16,1.46,2.07,2.57,2.71,1.11.63,2.41.95,3.86.95s2.75-.32,3.85-.95c1.1-.64,1.96-1.55,2.56-2.71.6-1.16.9-2.52.9-4.04v-9.61h-2.44v9.61Z"/>
        <rect class="cls-1" x="176.98" y="13.51" width="2.44" height="16.92"/>
        <polygon class="cls-1" points="197.58 13.51 195.11 13.51 188.3 30.24 188.22 30.43 190.78 30.43 196.29 16.59 201.75 30.34 201.78 30.43 204.45 30.43 197.58 13.51"/>
        <path class="cls-1" d="M163.96,24c1.08-.41,1.92-1.04,2.51-1.86.62-.87.93-1.91.93-3.12,0-1.11-.27-2.1-.8-2.93-.53-.83-1.31-1.47-2.33-1.92-1.01-.44-2.22-.67-3.6-.67h-6.3v16.92h2.44v-14.68h3.7c1.41,0,2.53.29,3.31.85.76.56,1.15,1.38,1.15,2.43s-.38,1.86-1.15,2.43c-.78.57-1.89.85-3.31.85h-.4l5.11,8.05.04.07h2.88l-4.17-6.42Z"/>
      </g>
    </g>
  </g>
</svg>